PathFileType	4	(X/Y/Z)	RBDS05\RBDS05runT35.trc
DataRate	CameraRate	NumFrames	NumMarkers	Units	OrigDataRate	OrigDataStartFrame	OrigNumFrames
150.000000	150.000000	6	33	mm	150.000000	562	4500
Frame#	Time	L.ASIS			L.Heel.Bottom			L.Heel.Lateral			L.Heel.Top			L.Iliac.Crest			L.MT1			L.MT5			L.PSIS			L.Shank.Bottom.Lateral			L.Shank.Bottom.Medial			L.Shank.Top.Lateral			L.Shank.Top.Medial			L.Thigh.Bottom.Lateral			L.Thigh.Bottom.Medial			L.Thigh.Top.Lateral			L.Thigh.Top.Medial			R.ASIS			R.ASY			R.Heel.Bottom			R.Heel.Lateral			R.Heel.Top			R.Iliac.Crest			R.MT1			R.MT5			R.PSIS			R.Shank.Bottom.Lateral			R.Shank.Bottom.Medial			R.Shank.Top.Lateral			R.Shank.Top.Medial			R.Thigh.Bottom.Lateral			R.Thigh.Bottom.Medial			R.Thigh.Top.Lateral			R.Thigh.Top.Medial			
		X1	Y1	Z1	X2	Y2	Z2	X3	Y3	Z3	X4	Y4	Z4	X5	Y5	Z5	X6	Y6	Z6	X7	Y7	Z7	X8	Y8	Z8	X9	Y9	Z9	X10	Y10	Z10	X11	Y11	Z11	X12	Y12	Z12	X13	Y13	Z13	X14	Y14	Z14	X15	Y15	Z15	X16	Y16	Z16	X17	Y17	Z17	X18	Y18	Z18	X19	Y19	Z19	X20	Y20	Z20	X21	Y21	Z21	X22	Y22	Z22	X23	Y23	Z23	X24	Y24	Z24	X25	Y25	Z25	X26	Y26	Z26	X27	Y27	Z27	X28	Y28	Z28	X29	Y29	Z29	X30	Y30	Z30	X31	Y31	Z31	X32	Y32	Z32	X33	Y33	Z33	

563	3.746666666666667	2235.919488741858	963.4807254791742	938.6715236460052	2347.822857861903	21.62868920159055	1004.595170770863	2367.148331536592	52.08351856382293	961.1101695557845	2336.146458789711	70.31340680773887	1005.469784887186	2180.69133528284	1037.874611306904	888.7307560958125	2524.569274036552	129.532373536976	1037.231481475624	2502.204968476576	108.2657511660112	935.8075220798088	2084.505180307458	1014.87333513696	979.5627790933364	2353.299732249961	192.5135180668632	942.9394967621546	2315.958179824101	181.4587818752906	976.4689396092386	2324.675225086908	266.3678258761689	927.2095318463817	2285.210392144035	259.6898636457177	962.9918135865589	2263.381850653479	622.9675292660571	892.4694681949298	2204.411121709458	595.033471261131	924.5592001778351	2208.755455514028	718.337410592997	881.8347183757297	2154.396756001366	693.5086326213633	914.9656739386837	2219.838677338517	962.3827340607595	1157.770707187701	1679.002655191701	211.3703579907882	1094.311528901864	1591.153283181784	350.4900884157656	1015.504152464157	1597.125533147493	338.9503467037794	1063.268644714231	1636.702865385486	354.1787902760622	1030.760795139726	2182.732475504345	1024.127541470081	1175.232762177189	1654.550189491475	154.4573081668791	1052.12160610759	1611.930344992719	200.088918934472	1136.072134041584	2084.980396147067	1018.265453064218	1075.62530797695	1713.660349899475	365.3071188980831	1115.371381249303	1704.352121972519	391.0502909085102	1068.266570688496	1772.057065534474	420.380971391074	1130.948777453481	1762.465751188448	444.049647541646	1083.724151710163	2034.588902422732	603.1741743158218	1192.134138891943	1976.30246224543	618.7070513186358	1149.561184065125	2052.464798237423	711.1703980018633	1203.218532494363	1997.235653143442	726.2035531329673	1162.752552381622	
564	3.753333333333333	2235.942019907347	960.7129880290895	937.8550913314169	2342.636502590418	19.86636538239205	1003.953394778438	2362.708537143577	49.71964131606516	960.6385140737522	2332.276085907501	68.45952060567643	1005.091353175775	2180.360971310025	1034.695826640991	888.3040652662675	2520.390771886199	123.8371914881402	1037.332319899185	2497.92665666847	103.0139820274578	935.9634326136012	2084.42082149574	1010.961558221193	979.5652427621746	2350.667308193843	188.1405497274907	942.7024662629132	2312.913514002527	177.2210887178931	975.8072320346357	2322.511016046289	262.1641237831496	927.0122727271938	2282.651320769261	255.6261944384795	962.3339416346986	2262.106274524001	618.5565029217598	892.5471677592425	2203.034460925011	591.1181742519893	925.0048551497889	2207.989772873746	714.229492013019	881.7788462650094	2153.599855328996	689.8743435351483	915.2391946900821	2220.931122993926	960.1474500025315	1157.185223231877	1677.409281301265	219.6452450526782	1094.087030918828	1593.620002358309	360.3963465414491	1013.655485094876	1599.258562630379	349.2863573762311	1061.548963447396	1639.188674187473	362.9746916508271	1028.832805409992	2182.968414443902	1021.594014920983	1174.825905707123	1651.176765419895	162.9693319232611	1052.558405610455	1610.100735396373	211.1942815686095	1136.063731342664	2085.242799956121	1014.590285215422	1075.49507613984	1716.44687908477	371.4651300079083	1114.955732140539	1708.7048631244	397.7760258586036	1067.80934948938	1776.909539946917	424.1062184039009	1131.317369048149	1768.738612024219	448.3456136653055	1084.109304255374	2041.340544232089	598.2698751845061	1194.704785087292	1982.847680791945	612.42795731001	1151.909878985707	2057.312916452264	706.6299049438385	1204.817269690032	2001.852746609588	720.3916277213273	1164.186770306605	
565	3.76	2235.9321865785	957.5913083804944	936.9634939699532	2333.301610800385	18.76390561305837	1003.21761345272	2354.61435614785	47.69878215240918	960.1954400990023	2325.018945890115	67.30902956622005	1004.73401796225	2179.938666722316	1031.153978840172	887.8430059049019	2513.081257879695	116.0764620266242	1037.891145442381	2490.559787100266	96.14079352074	936.4882693356125	2084.280501452691	1006.661051785444	979.6813761499404	2346.192980948467	183.4986453057539	942.5511827642995	2307.793213136411	173.1169452704162	975.0193992121181	2319.273131799413	257.9024574855741	926.7895456316844	2278.811538616562	251.9109107637816	961.4224220844926	2261.463049889781	614.2681869884191	892.7070018473812	2202.271932520594	587.1111192009921	925.2549380021209	2207.597148557645	710.0765824191167	881.7008406577399	2153.156810020487	686.0028163348948	915.3048498378701	2222.10111647635	957.3617532458892	1156.538828097034	1677.373328092721	227.3241791304394	1093.651225066994	1597.601613857694	369.9522809394635	1012.501212983427	1602.901230592432	359.0072721846124	1060.430084560371	1643.166673600906	371.3482526517169	1027.612632399932	2183.385976744264	1018.440717422323	1174.462766653499	1649.343300719145	171.182172589036	1052.459725312034	1609.89500272628	221.389892499627	1135.798518853936	2085.50404219976	1010.436181718198	1075.459939945435	1720.680296929396	376.8780066059397	1114.927620456641	1714.343931817954	403.8123124217411	1067.866781512519	1783.029322418733	427.0485089159914	1132.092003667222	1776.140680158124	451.9134756316618	1085.019743000966	2048.58801825794	592.8243927467054	1197.304673897805	1989.814550307138	605.5546941060655	1154.426935336656	2062.556573376761	701.555468728921	1206.481576440376	2006.824822953375	713.9608611137204	1165.747140866333	
566	3.766666666666667	2235.847506298921	954.120030593988	935.9818100691459	2320.242385849234	18.31353939938556	1002.521827323286	2343.175035099925	46.08045563732193	959.8866077601566	2314.657077854973	66.8358923083628	1004.521162893115	2179.456339543985	1027.223511936609	887.3420742818778	2502.893433867053	106.7184140508941	1038.842747626067	2480.32829757763	88.07419069709337	937.3325835953598	2084.03316772932	1002.02992014271	979.9153444603505	2340.000992828619	178.7525625290595	942.547687833052	2300.776668431433	169.3022638705834	974.2103109852219	2315.040913839648	253.7010182637042	926.5898627259118	2273.828923818702	248.6510587847087	960.3567421690714	2261.383865143472	610.1549958132764	892.8480771933429	2202.089201085081	583.0657691156397	925.2851124155331	2207.488092971528	705.9245357698522	881.5345618441708	2153.010700612579	681.9378624967632	915.1558038679882	2223.31254554694	954.0580351735692	1155.822461624387	1678.86597999333	234.3018488909215	1093.058586341011	1603.122896109837	379.1054919650803	1012.05387760477	1608.023456052915	368.0444061585243	1059.938478463737	1648.654248830823	379.2404197078868	1027.141649364358	2183.992219748513	1014.676124039098	1174.149755138727	1649.084059520593	178.9962871425592	1051.862805881755	1611.228376776485	230.5428290300943	1135.298197017008	2085.716455944066	1005.858348021354	1075.520964222911	1726.331460212127	381.4810612660463	1115.304495851104	1721.239185862016	409.1064818829057	1068.457304055132	1790.382630788	429.1703087491154	1133.277405529819	1784.638730131342	454.7234657619649	1086.452368449942	2056.354811070717	586.8848371900752	1199.88310328746	1997.20939250176	598.127418176239	1157.096117943818	2068.201825081397	695.9891993735525	1208.183654407507	2012.134799112073	706.9465035822957	1167.450574083573	
567	3.773333333333333	2235.635108367985	950.321863706426	934.8943893200213	2304.000426119328	18.47779417113156	1001.969562703834	2328.786974398868	44.9179573020029	959.7835223341225	2301.540654951356	66.98083346705809	1004.544474996304	2178.932024499311	1022.886723309337	886.7969305441499	2490.12470537843	96.36447594715754	1040.076247763455	2467.502116912623	79.35639694206283	938.4099550733672	2083.620254546622	997.1353224095858	980.2719666422421	2332.223118528378	174.0974757777927	942.7349712802418	2292.065015026657	165.9509218209571	973.4730429736893	2309.877863620642	249.6938625293278	926.4547759514551	2267.840539569895	245.956978118333	959.2384978029751	2261.747103644402	606.2511141260973	892.8778210012955	2202.399451213258	579.0343419435725	925.0964312848737	2207.542065223995	701.8152752956548	881.2281130752125	2153.076629000233	677.7354311116899	914.810368187862	2224.520633293998	950.2922069838072	1155.028101929923	1681.859726625642	240.4963119981545	1092.357034029777	1610.150500933986	387.7788708412805	1012.330512062987	1614.569501190292	376.3192804449104	1060.100035559211	1655.617459173266	386.5845050413952	1027.441005483773	2184.768605511531	1010.330279014041	1173.892114065022	1650.427453246008	186.319520058	1050.821757296319	1614.043321470406	238.5475587541666	1134.604950457308	2085.822130070553	1000.922690098288	1075.677549441767	1733.352789705406	385.2307876389424	1116.087954668724	1729.345044611232	413.6267952013749	1069.582410023247	1798.923235789134	430.4579641393447	1134.86039467145	1794.189110707666	456.7690266847172	1088.386773396056	2064.670191867864	580.5231216532283	1202.38552992466	2005.048647807519	590.2082047702253	1159.89340607301	2074.257567241399	689.9936972190699	1209.887523073872	2017.771118170088	699.4051071838749	1169.305594648804	
568	3.78	2235.236677861179	946.2426563668909	933.6886953866185	2285.188951616164	19.18349734184679	1001.625080076047	2311.90619542223	44.2415112963797	959.9174638521389	2286.06200808903	67.65058717359966	1004.852039601517	2178.360651030607	1018.142747046122	886.2070880445219	2475.101152827947	85.68641747322711	1041.455001900782	2452.386186049624	70.57849085769678	939.6139676438816	2082.98283818152	992.0527756303067	980.7578143177473	2322.988040652487	169.7310362765997	943.1297252485483	2281.863433607461	163.2258926583353	972.8777457113644	2303.822725086119	246.0098291823022	926.4115932965226	2260.965480590659	243.9207206104248	958.1586145179535	2262.381630412083	602.5693813818609	892.7236312129229	2203.060272184715	575.0647980452247	924.713078009005	2207.61538784465	697.7859905145563	880.7505329197671	2153.243333446468	673.4632473349836	914.3088690803162	2225.67409193824	946.1433356027341	1154.152403368499	1686.335008100091	245.8503911441565	1091.584510903784	1618.593225457644	395.8750830995943	1013.353922754546	1622.461323215549	383.7457357316585	1060.939825125398	1663.97269067852	393.3102043173703	1028.512056068813	2185.66812563826	1005.459076604223	1173.69472334326	1653.396834945024	193.069346570274	1049.40280877708	1618.316862831924	245.3226096934749	1133.777688598522	2085.759510910852	995.7053352541975	1075.928893387204	1741.682719726181	388.1062118842672	1117.264454131262	1738.601839144553	417.3626518814077	1071.228216432889	1808.595541216648	430.9227404663267	1136.810931446059	1804.737964507779	458.0677899627104	1090.787831324103	2073.561870301503	573.8418977384837	1204.755703183452	2013.355594954733	581.8885240253801	1162.783629899488	2080.731790508489	683.6573849569133	1211.549524152474	2023.728174181978	691.421030696219	1171.307015678169	
